Coordinates
version=1
nRows=22
nColumns=34
inDegrees=no

Units are S.I. units (second, meters, Newtons, ...)
If the header above contains a line with 'inDegrees', this indicates whether rotational values are in degrees (yes) or radians (no).

endheader
time	pelvis_tilt	pelvis_list	pelvis_rotation	pelvis_tx	pelvis_ty	pelvis_tz	hip_flexion_r	hip_adduction_r	hip_rotation_r	knee_angle_r	ankle_angle_r	subtalar_angle_r	mtp_angle_r	hip_flexion_l	hip_adduction_l	hip_rotation_l	knee_angle_l	ankle_angle_l	subtalar_angle_l	mtp_angle_l	lumbar_extension	lumbar_bending	lumbar_rotation	arm_flex_r	arm_add_r	arm_rot_r	elbow_flex_r	pro_sup_r	arm_flex_l	arm_add_l	arm_rot_l	elbow_flex_l	pro_sup_l
4.5	-0.885225	-0.032407	-0.0690765	-0.446675	0.877587	-0.51619	1.78015	-0.10035	-0.102522	1.11741	0.22737	-0.0615666	-0.00516544	1.76683	-0.506402	-0.0127359	1.0599	0.232261	0.240763	-0.00604014	-0.584561	0.0242944	0.245009	1.95349	-0.26288	0.326937	1.77998	1.9386	1.80347	-0.10373	0.270626	1.75286	2.15516
4.51	-0.884501	-0.0339065	-0.0695435	-0.445592	0.881678	-0.516395	1.7696	-0.0977633	-0.102859	1.10286	0.221087	-0.0648379	-0.00516531	1.75637	-0.50609	-0.0170633	1.04605	0.226537	0.240051	-0.00603711	-0.578906	0.0262351	0.243632	1.9386	-0.263988	0.327267	1.78363	1.9372	1.79064	-0.106811	0.271813	1.75564	2.16051
4.52	-0.883638	-0.0351593	-0.069589	-0.444445	0.885963	-0.516714	1.75862	-0.0953324	-0.102488	1.08768	0.214399	-0.068684	-0.00516517	1.74504	-0.505301	-0.0222393	1.03141	0.220572	0.239323	-0.00603408	-0.572609	0.0283874	0.241398	1.92242	-0.264993	0.327562	1.78773	1.93607	1.7769	-0.110422	0.273195	1.75873	2.16578
4.53	-0.882596	-0.036128	-0.069206	-0.443231	0.89042	-0.517146	1.7472	-0.0931221	-0.101429	1.07195	0.207349	-0.072971	-0.00516504	1.73284	-0.504014	-0.0282446	1.01606	0.214389	0.238631	-0.00603106	-0.565692	0.0306943	0.23833	1.90491	-0.265919	0.327741	1.79232	1.93536	1.76222	-0.11451	0.274826	1.76208	2.17048
4.54	-0.881318	-0.0367616	-0.0684329	-0.441939	0.895029	-0.517687	1.73534	-0.0911773	-0.0997317	1.05577	0.199995	-0.0774989	-0.00516491	1.71973	-0.502256	-0.0350736	1.00011	0.208028	0.238057	-0.00602806	-0.558205	0.0330556	0.234512	1.88604	-0.266819	0.327711	1.79743	1.93522	1.7466	-0.118987	0.276755	1.76567	2.17424
4.55	-0.879709	-0.0369881	-0.0673403	-0.440561	0.899775	-0.518334	1.72299	-0.0895339	-0.0974543	1.03923	0.19242	-0.0820155	-0.00516478	1.70564	-0.500087	-0.0427552	0.983652	0.201546	0.237694	-0.00602506	-0.550247	0.0353312	0.230066	1.86579	-0.267763	0.327374	1.80309	1.93576	1.72998	-0.123729	0.279003	1.76945	2.17682
4.56	-0.877626	-0.036713	-0.0660177	-0.439082	0.904652	-0.519083	1.71004	-0.0882248	-0.0946518	1.0224	0.184727	-0.0862418	-0.00516466	1.69041	-0.497586	-0.0513642	0.966787	0.195021	0.237633	-0.00602207	-0.541989	0.037348	0.225135	1.84417	-0.268831	0.326639	1.80933	1.93708	1.71233	-0.128585	0.281552	1.77342	2.17812
4.57	-0.874879	-0.035827	-0.0645643	-0.437485	0.909658	-0.519929	1.69632	-0.0872781	-0.091367	1.00537	0.177039	-0.0898997	-0.00516454	1.6738	-0.494837	-0.0610183	0.949603	0.188547	0.237962	-0.00601909	-0.533675	0.0389123	0.219871	1.82122	-0.270106	0.325433	1.81616	1.93924	1.6936	-0.133377	0.284329	1.77756	2.17819
4.58	-0.87124	-0.034225	-0.0630886	-0.435751	0.914802	-0.520867	1.68163	-0.0867069	-0.0876352	0.988191	0.169492	-0.0927377	-0.00516442	1.65553	-0.491937	-0.071856	0.932181	0.182224	0.238764	-0.00601612	-0.525608	0.0398283	0.214428	1.79702	-0.271662	0.32371	1.82359	1.94225	1.67377	-0.137909	0.287218	1.78186	2.17721
4.59	-0.866476	-0.0318346	-0.0617092	-0.433862	0.920091	-0.521889	1.66574	-0.0864962	-0.0835005	0.970917	0.162223	-0.0945542	-0.0051643	1.63534	-0.48899	-0.0839959	0.91459	0.176152	0.240119	-0.00601316	-0.518105	0.039927	0.208965	1.77167	-0.273548	0.321451	1.83158	1.94601	1.65283	-0.141992	0.290072	1.78631	2.17551
4.6	-0.860392	-0.0286435	-0.0605468	-0.431801	0.925532	-0.522981	1.64843	-0.0866024	-0.0790345	0.953571	0.155362	-0.0952138	-0.00516418	1.61302	-0.486103	-0.0974878	0.896888	0.170414	0.242089	-0.0060102	-0.511439	0.039102	0.203636	1.74523	-0.275779	0.318679	1.8401	1.9503	1.63079	-0.145475	0.29274	1.79089	2.17353
4.61	-0.852875	-0.0247146	-0.0597028	-0.429562	0.931128	-0.524129	1.62959	-0.0869709	-0.0743464	0.936161	0.149008	-0.0946504	-0.00516407	1.58851	-0.483353	-0.112277	0.879111	0.165061	0.244695	-0.00600726	-0.505778	0.0373433	0.198582	1.71779	-0.278338	0.315463	1.84907	1.95477	1.60765	-0.148281	0.295094	1.79557	2.17175
4.62	-0.843918	-0.0201805	-0.0592355	-0.427144	0.936867	-0.52532	1.60917	-0.0875609	-0.069577	0.918683	0.143223	-0.0928596	-0.00516396	1.56189	-0.480758	-0.128198	0.861275	0.16011	0.247906	-0.00600432	-0.501166	0.034749	0.193912	1.68941	-0.281175	0.311911	1.85839	1.95898	1.58346	-0.150427	0.297065	1.80036	2.17058
4.63	-0.833612	-0.0152193	-0.0591464	-0.424551	0.942734	-0.526547	1.58725	-0.088363	-0.0648799	0.901136	0.138028	-0.0898859	-0.00516385	1.53339	-0.478272	-0.145002	0.843381	0.155539	0.251645	-0.0060014	-0.497522	0.0315087	0.189676	1.66013	-0.284213	0.308156	1.86791	1.96251	1.55827	-0.152025	0.298657	1.80525	2.17014
4.64	-0.822111	-0.0100236	-0.0593789	-0.421795	0.948701	-0.527807	1.56397	-0.0894075	-0.0604007	0.883533	0.133411	-0.0858078	-0.00516375	1.50331	-0.475786	-0.162396	0.82542	0.151303	0.25581	-0.00599848	-0.494675	0.0278687	0.185862	1.62999	-0.287348	0.304328	1.87749	1.96507	1.53214	-0.153259	0.299935	1.81027	2.17038
4.65	-0.809605	-0.00477405	-0.0598306	-0.418888	0.954743	-0.529105	1.53952	-0.0907582	-0.0562599	0.865905	0.129339	-0.080727	-0.00516365	1.472	-0.473147	-0.180084	0.807383	0.147343	0.260302	-0.00599557	-0.49241	0.0240914	0.182394	1.59902	-0.290462	0.300531	1.88697	1.9665	1.50514	-0.154338	0.30099	1.81547	2.17114
4.66	-0.79628	0.000377613	-0.0603764	-0.415841	0.960829	-0.530449	1.5141	-0.0924913	-0.052542	0.848292	0.125762	-0.0747686	-0.00516355	1.43979	-0.470191	-0.197794	0.789261	0.143591	0.265035	-0.00599267	-0.490506	0.0204199	0.179157	1.56727	-0.293437	0.296838	1.8962	1.96684	1.47735	-0.155456	0.301914	1.82087	2.1722
4.67	-0.782302	0.00531929	-0.0608925	-0.412664	0.966933	-0.53185	1.48788	-0.0946718	-0.0492867	0.830734	0.12261	-0.068088	-0.00516345	1.40695	-0.466768	-0.215292	0.771052	0.13998	0.26995	-0.00598977	-0.488769	0.0170478	0.176021	1.53476	-0.296164	0.293276	1.90508	1.96628	1.4488	-0.156753	0.302782	1.8265	2.17332
4.68	-0.767813	0.00998695	-0.061272	-0.409365	0.973035	-0.533318	1.46102	-0.0973411	-0.046486	0.813265	0.119801	-0.0608714	-0.00516336	1.37371	-0.462755	-0.232404	0.752759	0.136448	0.275007	-0.00598689	-0.487033	0.0140999	0.172864	1.50153	-0.298559	0.289828	1.91353	1.96519	1.41955	-0.158306	0.303648	1.83237	2.17427
4.69	-0.752924	0.0143628	-0.0614341	-0.40595	0.979116	-0.534858	1.43366	-0.100513	-0.0440935	0.795915	0.117236	-0.0533286	-0.00516327	1.34025	-0.458067	-0.249012	0.734382	0.132942	0.280183	-0.00598401	-0.485169	0.0116285	0.169584	1.4676	-0.300565	0.286438	1.92153	1.96398	1.3896	-0.160128	0.304555	1.83849	2.17481
4.7	-0.737719	0.0184591	-0.0613329	-0.402424	0.985163	-0.536474	1.40588	-0.10417	-0.0420429	0.778694	0.114808	-0.0456778	-0.00516318	1.30666	-0.452664	-0.265051	0.715924	0.129424	0.285464	-0.00598115	-0.483088	0.0096297	0.166118	1.43295	-0.302156	0.28303	1.92911	1.96301	1.35897	-0.162181	0.305531	1.84483	2.17474
4.71	-0.722251	0.0222951	-0.0609622	-0.398787	0.991168	-0.538166	1.37774	-0.108255	-0.0402698	0.761592	0.112398	-0.038126	-0.00516309	1.27302	-0.446552	-0.280484	0.69738	0.12587	0.290834	-0.00597829	-0.480747	0.00807068	0.162456	1.3976	-0.303333	0.279529	1.93632	1.96257	1.32764	-0.164388	0.306585	1.85135	2.1739
